<svg xmlns="http://www.w3.org/2000/svg" width="1920" height="1260" viewBox="0 0 1920 1260">
  <defs>
    <style>
      .cls-1 {
        fill-rule: evenodd;
      }
    </style>
  </defs>
  <path id="Color_Fill_1" data-name="Color Fill 1" class="cls-1" d="M0,0H1920V804c-44.49.547-142.69,9.056-167-20,3.27-13.617,13.58-25.509,10-46-6.46-36.911-39.49-84.269-89-75-21.36,4-37.64,15.911-60,17,0.39-22.971,3.02-41.761-5-58-80.29-17.868-179.98-15.992-282-16-54.57,0-114.13-4.985-165,3-31.35,4.922-113.89-4.338-125,16-9.88,36.211,4.91,144.958,14,171-0.67.667-1.33,1.333-2,2-50.057,10.049-98.138-7.055-150-2-32.531,3.171-78.275,13.378-120,6l-36-10c-133.1,14.228-288.227,6-425,6-70.364,0-137.306-.171-206,0-35.174.088-79.871,2.793-112-2V0ZM1675,691c45.12-.922,78.03,41.526,53,83-16.44,27.236-44.99,26.018-80,26-17.74-.009-35.83.065-49-5q2.505-13.5,5-27,8.505-9.5,17-19c10.43-16.856,9.07-35.973,25-47Q1660.505,696.5,1675,691Z"/>
</svg>
